<svg width="1440" height="707" viewBox="0 0 1440 707" fill="none" xmlns="http://www.w3.org/2000/svg">
<g clip-path="url(#clip0_51_3912)">
<path d="M-216.138 -218.124H1402.9C1402.9 -218.124 1684.01 199.251 1402.9 455.794C1121.8 712.337 669.755 791.541 322.149 488.544C-25.4565 185.547 -216.138 400.273 -216.138 400.273V-218.124Z" fill="url(#paint0_linear_51_3912)"/>
<path d="M-21.489 -429.695H-60.989V-390.195V228.202V332.171L7.89197 254.604C7.89898 254.596 7.90672 254.588 7.91519 254.579C8.04655 254.439 8.3517 254.116 8.82938 253.633C9.78574 252.666 11.4265 251.061 13.7412 248.987C18.3798 244.831 25.6629 238.847 35.5076 232.344C55.1989 219.337 84.8522 204.433 124.054 197.632C200.618 184.351 323.59 200.458 490.844 346.249C856.74 665.188 1331.56 579.949 1624.18 312.899C1780.28 170.438 1778.06 -16.278 1741.22 -159.293C1722.72 -231.11 1695.11 -294.068 1672.28 -338.892C1660.84 -361.376 1650.5 -379.479 1642.97 -392.06C1639.2 -398.354 1636.12 -403.278 1633.94 -406.69C1632.85 -408.396 1631.99 -409.725 1631.38 -410.659C1631.07 -411.126 1630.83 -411.495 1630.65 -411.762C1630.56 -411.896 1630.49 -412.005 1630.43 -412.088L1630.36 -412.193L1630.33 -412.232C1630.32 -412.247 1630.32 -412.26 1597.55 -390.195L1630.32 -412.26L1618.57 -429.695H1597.55H-21.489Z" stroke="url(#paint1_linear_51_3912)" stroke-width="79"/>
</g>
<defs>
<linearGradient id="paint0_linear_51_3912" x1="655.851" y1="-218.124" x2="655.851" y2="684.071" gradientUnits="userSpaceOnUse">
<stop offset="0.249258" stop-color="#023147"/>
<stop offset="1" stop-color="#4A8FE1"/>
</linearGradient>
<linearGradient id="paint1_linear_51_3912" x1="850.5" y1="-390.195" x2="850.5" y2="512" gradientUnits="userSpaceOnUse">
<stop stop-color="#003463"/>
<stop offset="1" stop-color="#1174D0" stop-opacity="0"/>
</linearGradient>
<clipPath id="clip0_51_3912">
<rect width="1443" height="707" fill="white"/>
</clipPath>
</defs>
</svg>
