<svg width="175" height="62" viewBox="0 0 175 62" fill="none" xmlns="http://www.w3.org/2000/svg">
<path d="M151.348 42.3299V48.9986C151.348 51.2084 149.557 52.9998 147.347 52.9998H106.068" stroke="#FAFAFA" stroke-width="2.71754" stroke-linecap="round" stroke-linejoin="round"/>
<path d="M146.012 15.6552V4.98532" stroke="#FAFAFA" stroke-width="3.8822" stroke-linecap="round" stroke-linejoin="round"/>
<path d="M156.682 15.6552V4.98532" stroke="#FAFAFA" stroke-width="3.8822" stroke-linecap="round" stroke-linejoin="round"/>
<path d="M148.68 31.6599H154.015" stroke="white" stroke-width="2.71754" stroke-linecap="round" stroke-linejoin="round"/>
<path d="M162.232 17.1459H140.461C138.457 17.1459 136.832 18.7704 136.832 20.7744V42.5458C136.832 44.5498 138.457 46.1744 140.461 46.1744H162.232C164.236 46.1744 165.861 44.5498 165.861 42.5458V20.7744C165.861 18.7704 164.236 17.1459 162.232 17.1459Z" fill="#2FBFA6" stroke="#FAFAFA" stroke-width="2.71754"/>
<path d="M16.3568 25.4794V29.9998H23.6468V34.2019H16.3568V39.1043H24.6018V43.4656H10.9132V21.1181H24.6018V25.4794H16.3568ZM33.5795 28.2171C34.11 27.3894 34.8422 26.7209 35.776 26.2115C36.7098 25.7022 37.8028 25.4475 39.0549 25.4475C40.5193 25.4475 41.8457 25.8189 43.0342 26.5617C44.2227 27.3045 45.1564 28.3656 45.8356 29.7451C46.5359 31.1246 46.8861 32.7269 46.8861 34.552C46.8861 36.3772 46.5359 37.9901 45.8356 39.3908C45.1564 40.7703 44.2227 41.842 43.0342 42.6061C41.8457 43.3488 40.5193 43.7202 39.0549 43.7202C37.824 43.7202 36.731 43.4656 35.776 42.9562C34.8422 42.4469 34.11 41.789 33.5795 40.9825V51.9334H28.1359V25.7022H33.5795V28.2171ZM41.347 34.552C41.347 33.1938 40.965 32.1327 40.201 31.3686C39.4582 30.5834 38.535 30.1908 37.4314 30.1908C36.349 30.1908 35.4259 30.5834 34.6618 31.3686C33.919 32.1539 33.5476 33.2256 33.5476 34.5839C33.5476 35.9421 33.919 37.0139 34.6618 37.7991C35.4259 38.5844 36.349 38.977 37.4314 38.977C38.5138 38.977 39.4369 38.5844 40.201 37.7991C40.965 36.9927 41.347 35.9103 41.347 34.552ZM52.4797 23.8558C51.5247 23.8558 50.7394 23.5799 50.124 23.0281C49.5297 22.4551 49.2326 21.7548 49.2326 20.9271C49.2326 20.0782 49.5297 19.3778 50.124 18.826C50.7394 18.253 51.5247 17.9665 52.4797 17.9665C53.4135 17.9665 54.1775 18.253 54.7717 18.826C55.3872 19.3778 55.6949 20.0782 55.6949 20.9271C55.6949 21.7548 55.3872 22.4551 54.7717 23.0281C54.1775 23.5799 53.4135 23.8558 52.4797 23.8558ZM55.1856 25.7022V43.4656H49.742V25.7022H55.1856ZM58.0481 34.552C58.0481 32.7269 58.3877 31.1246 59.0668 29.7451C59.7672 28.3656 60.7116 27.3045 61.9001 26.5617C63.0885 25.8189 64.415 25.4475 65.8793 25.4475C67.0466 25.4475 68.1077 25.6916 69.0627 26.1797C70.039 26.6678 70.803 27.3257 71.3548 28.1534V19.9084H76.7984V43.4656H71.3548V40.9188C70.8454 41.7678 70.1132 42.4469 69.1582 42.9562C68.2244 43.4656 67.1315 43.7202 65.8793 43.7202C64.415 43.7202 63.0885 43.3488 61.9001 42.6061C60.7116 41.842 59.7672 40.7703 59.0668 39.3908C58.3877 37.9901 58.0481 36.3772 58.0481 34.552ZM71.3548 34.5839C71.3548 33.2256 70.9728 32.1539 70.2087 31.3686C69.4659 30.5834 68.5534 30.1908 67.471 30.1908C66.3887 30.1908 65.4655 30.5834 64.7015 31.3686C63.9587 32.1327 63.5873 33.1938 63.5873 34.552C63.5873 35.9103 63.9587 36.9927 64.7015 37.7991C65.4655 38.5844 66.3887 38.977 67.471 38.977C68.5534 38.977 69.4659 38.5844 70.2087 37.7991C70.9728 37.0139 71.3548 35.9421 71.3548 34.5839ZM97.4813 34.2974C97.4813 34.8067 97.4495 35.3373 97.3858 35.8891H85.066C85.1509 36.9927 85.5011 37.8416 86.1165 38.4358C86.7532 39.0088 87.5279 39.2953 88.4404 39.2953C89.7987 39.2953 90.7431 38.7223 91.2737 37.5763H97.0674C96.7703 38.7435 96.2292 39.794 95.4439 40.7278C94.6799 41.6616 93.7143 42.3938 92.547 42.9244C91.3798 43.455 90.0746 43.7202 88.6314 43.7202C86.8912 43.7202 85.3419 43.3488 83.9837 42.6061C82.6254 41.8633 81.5643 40.8021 80.8003 39.4226C80.0362 38.0432 79.6542 36.4303 79.6542 34.5839C79.6542 32.7375 80.0256 31.1246 80.7684 29.7451C81.5324 28.3656 82.5936 27.3045 83.9518 26.5617C85.3101 25.8189 86.8699 25.4475 88.6314 25.4475C90.3505 25.4475 91.8785 25.8083 93.2155 26.5299C94.5526 27.2514 95.5925 28.2807 96.3353 29.6178C97.0993 30.9548 97.4813 32.5147 97.4813 34.2974ZM91.9103 32.8648C91.9103 31.931 91.592 31.1882 90.9553 30.6365C90.3186 30.0847 89.5228 29.8088 88.5678 29.8088C87.6552 29.8088 86.8806 30.0741 86.2439 30.6046C85.6284 31.1352 85.2464 31.8886 85.0979 32.8648H91.9103ZM123.019 25.5112C125.226 25.5112 126.977 26.1797 128.271 27.5167C129.587 28.8538 130.245 30.7107 130.245 33.0877V43.4656H124.833V33.8199C124.833 32.6738 124.526 31.7931 123.91 31.1776C123.316 30.541 122.488 30.2226 121.427 30.2226C120.366 30.2226 119.528 30.541 118.912 31.1776C118.318 31.7931 118.021 32.6738 118.021 33.8199V43.4656H112.609V33.8199C112.609 32.6738 112.301 31.7931 111.686 31.1776C111.092 30.541 110.264 30.2226 109.203 30.2226C108.142 30.2226 107.303 30.541 106.688 31.1776C106.094 31.7931 105.797 32.6738 105.797 33.8199V43.4656H100.353V25.7022H105.797V27.9306C106.348 27.1878 107.07 26.6042 107.961 26.1797C108.853 25.734 109.861 25.5112 110.986 25.5112C112.323 25.5112 113.511 25.7977 114.551 26.3707C115.612 26.9437 116.44 27.7608 117.034 28.8219C117.65 27.8457 118.488 27.0498 119.549 26.4344C120.61 25.8189 121.767 25.5112 123.019 25.5112Z" fill="#FAFAFA"/>
<path d="M146.378 23.8239V40.0562H142.424V23.8239H146.378ZM160.92 23.8239V26.9917H156.619V40.0562H152.665V26.9917H148.365V23.8239H160.92Z" fill="white"/>
</svg>
