<svg width="1278" height="362" viewBox="0 0 1278 363" fill="none" xmlns="http://www.w3.org/2000/svg">
<g clip-path="url(#clip0_328_3491)">
<rect y="0.755615" width="1278" height="361.489" rx="10" fill="#D9D9D9"/>
<g clip-path="url(#clip1_328_3491)">
<path d="M-370.139 -217.368H1248.9C1248.9 -217.368 1530.01 200.007 1248.9 456.549C967.798 713.092 515.755 792.296 168.149 489.3C-179.457 186.303 -370.139 401.029 -370.139 401.029V-217.368Z" fill="url(#paint0_linear_328_3491)"/>
<path d="M-175.488 -428.939H-214.988V-389.439V228.958V332.926L-146.107 255.36C-146.1 255.352 -146.093 255.344 -146.084 255.335C-145.953 255.194 -145.648 254.872 -145.17 254.389C-144.214 253.421 -142.573 251.816 -140.258 249.742C-135.619 245.587 -128.336 239.603 -118.492 233.1C-98.8004 220.092 -69.147 205.188 -29.9453 198.388C46.6191 185.106 169.591 201.214 336.845 347.004C702.741 665.944 1177.56 580.705 1470.18 313.654C1626.28 171.194 1624.06 -15.5224 1587.22 -158.537C1568.72 -230.354 1541.11 -293.312 1518.29 -338.137C1506.84 -360.621 1496.51 -378.724 1488.97 -391.304C1485.2 -397.599 1482.12 -402.523 1479.94 -405.934C1478.85 -407.64 1477.99 -408.969 1477.38 -409.903C1477.07 -410.371 1476.83 -410.739 1476.65 -411.007C1476.56 -411.14 1476.49 -411.249 1476.43 -411.332L1476.36 -411.438L1476.34 -411.476C1476.33 -411.491 1476.32 -411.505 1443.55 -389.439L1476.32 -411.505L1464.57 -428.939H1443.55H-175.488Z" stroke="url(#paint1_linear_328_3491)" stroke-width="79"/>
</g>
</g>
<defs>
<linearGradient id="paint0_linear_328_3491" x1="501.85" y1="-217.368" x2="501.85" y2="684.827" gradientUnits="userSpaceOnUse">
<stop offset="0.249258" stop-color="#51006D"/>
<stop offset="1" stop-color="#6249A8"/>
</linearGradient>
<linearGradient id="paint1_linear_328_3491" x1="696.501" y1="-389.439" x2="696.501" y2="512.756" gradientUnits="userSpaceOnUse">
<stop stop-color="#9E00FF"/>
<stop offset="1" stop-color="#1174D0" stop-opacity="0"/>
</linearGradient>
<clipPath id="clip0_328_3491">
<rect y="0.755615" width="1278" height="361.489" rx="30" fill="white"/>
</clipPath>
<clipPath id="clip1_328_3491">
<rect width="1443" height="707" fill="white" transform="translate(-154 0.755615)"/>
</clipPath>
</defs>
</svg>
