<svg width="1278" height="362" viewBox="0 0 1278 362" fill="none" xmlns="http://www.w3.org/2000/svg">
<g clip-path="url(#clip0_106_638)">
<rect width="1278" height="361.489" rx="10" fill="#D9D9D9"/>
<g clip-path="url(#clip1_106_638)">
<path d="M-370.139 -218.124H1248.9C1248.9 -218.124 1530.01 199.251 1248.9 455.794C967.798 712.337 515.755 791.541 168.149 488.544C-179.457 185.547 -370.139 400.273 -370.139 400.273V-218.124Z" fill="url(#paint0_linear_106_638)"/>
<path d="M-175.488 -429.695H-214.988V-390.195V228.202V332.171L-146.107 254.604C-146.1 254.596 -146.093 254.588 -146.084 254.579C-145.953 254.439 -145.648 254.116 -145.17 253.633C-144.214 252.666 -142.573 251.061 -140.258 248.987C-135.619 244.831 -128.336 238.847 -118.492 232.344C-98.8004 219.337 -69.147 204.433 -29.9453 197.632C46.6191 184.351 169.591 200.458 336.845 346.249C702.741 665.188 1177.56 579.949 1470.18 312.899C1626.28 170.438 1624.06 -16.278 1587.22 -159.293C1568.72 -231.11 1541.11 -294.068 1518.29 -338.892C1506.84 -361.376 1496.51 -379.479 1488.97 -392.06C1485.2 -398.354 1482.12 -403.278 1479.94 -406.69C1478.85 -408.396 1477.99 -409.725 1477.38 -410.659C1477.07 -411.126 1476.83 -411.495 1476.65 -411.762C1476.56 -411.896 1476.49 -412.005 1476.43 -412.088L1476.36 -412.193L1476.34 -412.232C1476.33 -412.247 1476.32 -412.26 1443.55 -390.195L1476.32 -412.26L1464.57 -429.695H1443.55H-175.488Z" stroke="url(#paint1_linear_106_638)" stroke-width="79"/>
</g>
</g>
<defs>
<linearGradient id="paint0_linear_106_638" x1="501.85" y1="-218.124" x2="501.85" y2="684.071" gradientUnits="userSpaceOnUse">
<stop offset="0.249258" stop-color="#023147"/>
<stop offset="1" stop-color="#4A8FE1"/>
</linearGradient>
<linearGradient id="paint1_linear_106_638" x1="696.501" y1="-390.195" x2="696.501" y2="512" gradientUnits="userSpaceOnUse">
<stop stop-color="#003463"/>
<stop offset="1" stop-color="#1174D0" stop-opacity="0"/>
</linearGradient>
<clipPath id="clip0_106_638">
<rect width="1278" height="361.489" rx="30" fill="white"/>
</clipPath>
<clipPath id="clip1_106_638">
<rect width="1443" height="707" fill="white" transform="translate(-154)"/>
</clipPath>
</defs>
</svg>
