<svg width="40" height="40" viewBox="0 0 40 40" fill="none" xmlns="http://www.w3.org/2000/svg">
<rect width="40" height="40" rx="6.89655" fill="#003463"/>
<path d="M16.25 21.875C19.0125 21.875 21.25 19.6375 21.25 16.875C21.25 14.1125 19.0125 11.875 16.25 11.875C13.4875 11.875 11.25 14.1125 11.25 16.875C11.25 19.6375 13.4875 21.875 16.25 21.875ZM16.25 14.375C17.625 14.375 18.75 15.5 18.75 16.875C18.75 18.25 17.625 19.375 16.25 19.375C14.875 19.375 13.75 18.25 13.75 16.875C13.75 15.5 14.875 14.375 16.25 14.375ZM16.25 24.375C12.9125 24.375 6.25 26.05 6.25 29.375V31.875H26.25V29.375C26.25 26.05 19.5875 24.375 16.25 24.375ZM8.75 29.375C9.025 28.475 12.8875 26.875 16.25 26.875C19.625 26.875 23.5 28.4875 23.75 29.375H8.75ZM23.85 14.4375C24.9 15.9125 24.9 17.825 23.85 19.3L25.95 21.4125C28.475 18.8875 28.475 15.075 25.95 12.325L23.85 14.4375ZM30.0875 8.125L28.05 10.1625C31.5125 13.9375 31.5125 19.6125 28.05 23.5875L30.0875 25.625C34.9625 20.7625 34.975 13.1875 30.0875 8.125Z" fill="white"/>
</svg>
